<svg width="156" height="48" viewBox="0 0 156 48" fill="none" xmlns="http://www.w3.org/2000/svg">
<path d="M1 30.0777L2.71111 25.1572C4.42222 20.2367 7.84444 10.3957 11.2667 4.9977C14.6889 -0.400321 18.1111 -1.35537 21.5333 8.62235C24.9555 18.6001 28.3778 39.5106 31.8 45.231C35.2222 50.9515 38.6444 41.4819 42.0666 35.5088C45.4889 29.5358 48.9111 27.0594 52.3333 29.7119C55.7555 32.3644 59.1778 40.1459 62.6 41.9719C66.0222 43.798 69.4444 39.6685 72.8666 37.1916C76.2889 34.7147 79.7111 33.8904 83.1333 36.1566C86.5555 38.4228 89.9777 43.7795 93.4 41.0314C96.8222 38.2833 100.244 27.4304 103.667 22.6613C107.089 17.8922 110.511 19.2069 113.933 24.3215C117.355 29.4362 120.778 38.3507 124.2 43.071C127.622 47.7913 131.044 48.3174 134.467 41.2291C137.889 34.1409 141.311 19.4384 144.733 13.8203C148.155 8.20213 151.578 11.6684 153.289 13.4016L155 15.1347" stroke="#1AD598" stroke-width="2"/>
</svg>
